# xmcd
# 
# Track frame offsets:
#     150
#     12265
#     22305
#     35896
#     48218
#     59907
#     69346
#     83320
#     96832
#     112368
#     124958
#     135706
#     146607
#     158174
#     172699
#     187484
# 
# Disc length: 2683
# 
# Revision: 2
# Processed by: cddbd v1.5.2PL0 Copyright (c) Steve Scherf et al.
# Submitted via: BonkEnc v1.0.6
# 
DISCID=ec0a7910
DTITLE=Doris Day - The Great Doris Day  CD1
DYEAR=0
DGENRE=Jazz
TTITLE0=Canadian Capers
TTITLE1=Quicksilver
TTITLE2=Let's Take An Old Fashioned Walk
TTITLE3=Bewitched
TTITLE4=Powder Your Face With Sunshine
TTITLE5=There's A Bluebird On Your Windowsill
TTITLE6=Put 'em In A Box
TTITLE7=Confess
TTITLE8=It's Magic
TTITLE9=Again
TTITLE10=Everywhere You Go
TTITLE11=Now That I Need You
TTITLE12=My Darling, My Darling
TTITLE13=Sooner Or Later
TTITLE14=The Whole World Is Singing My Song
TTITLE15=Love Somebody
EXTD=
EXTT0=
EXTT1=
EXTT2=
EXTT3=
EXTT4=
EXTT5=
EXTT6=
EXTT7=
EXTT8=
EXTT9=
EXTT10=
EXTT11=
EXTT12=
EXTT13=
EXTT14=
EXTT15=
PLAYORDER=
